<mxfile host="app.diagrams.net" modified="2023-04-19T11:12:17.543Z" agent="5.0 (Macintosh; Intel Mac OS X 10_15_7) AppleWebKit/537.36 (KHTML, like Gecko) Chrome/112.0.0.0 Safari/537.36" etag="8g8GMQAPIhty71UElsRy" version="21.0.2" type="github">
  <diagram name="Page-1" id="2z0IgSUQS7QCNBz0xPC9">
    <mxGraphModel dx="1536" dy="781" grid="0" gridSize="10" guides="1" tooltips="1" connect="1" arrows="1" fold="1" page="1" pageScale="1" pageWidth="850" pageHeight="1100" math="0" shadow="0">
      <root>
        <mxCell id="0" />
        <mxCell id="1" parent="0" />
        <mxCell id="uG-KMg2iX7xWKbClNyzy-1" value="0" style="rounded=0;whiteSpace=wrap;html=1;" parent="1" vertex="1">
          <mxGeometry x="185" y="275" width="30" height="30" as="geometry" />
        </mxCell>
        <mxCell id="uG-KMg2iX7xWKbClNyzy-2" value="0" style="rounded=0;whiteSpace=wrap;html=1;" parent="1" vertex="1">
          <mxGeometry x="215" y="275" width="30" height="30" as="geometry" />
        </mxCell>
        <mxCell id="uG-KMg2iX7xWKbClNyzy-3" value="1" style="rounded=0;whiteSpace=wrap;html=1;fillColor=#d5e8d4;strokeColor=#82b366;" parent="1" vertex="1">
          <mxGeometry x="245" y="275" width="30" height="30" as="geometry" />
        </mxCell>
        <mxCell id="uG-KMg2iX7xWKbClNyzy-4" value="0" style="rounded=0;whiteSpace=wrap;html=1;" parent="1" vertex="1">
          <mxGeometry x="275" y="275" width="30" height="30" as="geometry" />
        </mxCell>
        <mxCell id="uG-KMg2iX7xWKbClNyzy-5" value="0" style="rounded=0;whiteSpace=wrap;html=1;" parent="1" vertex="1">
          <mxGeometry x="305" y="275" width="30" height="30" as="geometry" />
        </mxCell>
        <mxCell id="uG-KMg2iX7xWKbClNyzy-6" value="0" style="rounded=0;whiteSpace=wrap;html=1;" parent="1" vertex="1">
          <mxGeometry x="335" y="275" width="30" height="30" as="geometry" />
        </mxCell>
        <mxCell id="uG-KMg2iX7xWKbClNyzy-7" value="1" style="rounded=0;whiteSpace=wrap;html=1;fillColor=#fa6800;strokeColor=#C73500;fontColor=#000000;" parent="1" vertex="1">
          <mxGeometry x="365" y="275" width="30" height="30" as="geometry" />
        </mxCell>
        <mxCell id="uG-KMg2iX7xWKbClNyzy-8" value="0" style="rounded=0;whiteSpace=wrap;html=1;" parent="1" vertex="1">
          <mxGeometry x="395" y="275" width="30" height="30" as="geometry" />
        </mxCell>
        <mxCell id="uG-KMg2iX7xWKbClNyzy-9" value="0" style="rounded=0;whiteSpace=wrap;html=1;" parent="1" vertex="1">
          <mxGeometry x="425" y="275" width="30" height="30" as="geometry" />
        </mxCell>
        <mxCell id="uG-KMg2iX7xWKbClNyzy-10" value="0" style="rounded=0;whiteSpace=wrap;html=1;" parent="1" vertex="1">
          <mxGeometry x="455" y="275" width="30" height="30" as="geometry" />
        </mxCell>
        <mxCell id="uG-KMg2iX7xWKbClNyzy-11" value="1" style="rounded=0;whiteSpace=wrap;html=1;fillColor=#fa6800;strokeColor=#C73500;fontColor=#000000;" parent="1" vertex="1">
          <mxGeometry x="485" y="275" width="30" height="30" as="geometry" />
        </mxCell>
        <mxCell id="uG-KMg2iX7xWKbClNyzy-12" value="0" style="rounded=0;whiteSpace=wrap;html=1;" parent="1" vertex="1">
          <mxGeometry x="515" y="275" width="30" height="30" as="geometry" />
        </mxCell>
        <mxCell id="uG-KMg2iX7xWKbClNyzy-13" value="1" style="rounded=0;whiteSpace=wrap;html=1;fillColor=#d5e8d4;strokeColor=#82b366;" parent="1" vertex="1">
          <mxGeometry x="545" y="275" width="30" height="30" as="geometry" />
        </mxCell>
        <mxCell id="uG-KMg2iX7xWKbClNyzy-14" value="0" style="rounded=0;whiteSpace=wrap;html=1;" parent="1" vertex="1">
          <mxGeometry x="575" y="275" width="30" height="30" as="geometry" />
        </mxCell>
        <mxCell id="uG-KMg2iX7xWKbClNyzy-15" value="1" style="rounded=0;whiteSpace=wrap;html=1;fillColor=#fa6800;strokeColor=#C73500;fontColor=#000000;" parent="1" vertex="1">
          <mxGeometry x="605" y="275" width="30" height="30" as="geometry" />
        </mxCell>
        <mxCell id="uG-KMg2iX7xWKbClNyzy-16" value="0" style="rounded=0;whiteSpace=wrap;html=1;" parent="1" vertex="1">
          <mxGeometry x="635" y="275" width="30" height="30" as="geometry" />
        </mxCell>
        <mxCell id="uG-KMg2iX7xWKbClNyzy-17" value="0" style="text;html=1;strokeColor=#E6E6E6;fillColor=none;align=center;verticalAlign=middle;whiteSpace=wrap;rounded=0;fontSize=10;fontStyle=0;fontColor=#8F8F8F;" parent="1" vertex="1">
          <mxGeometry x="185" y="305" width="30" height="30" as="geometry" />
        </mxCell>
        <mxCell id="uG-KMg2iX7xWKbClNyzy-18" value="1" style="text;html=1;strokeColor=#E6E6E6;fillColor=none;align=center;verticalAlign=middle;whiteSpace=wrap;rounded=0;fontSize=10;fontStyle=0;fontColor=#8F8F8F;" parent="1" vertex="1">
          <mxGeometry x="215" y="305" width="30" height="30" as="geometry" />
        </mxCell>
        <mxCell id="uG-KMg2iX7xWKbClNyzy-19" value="2" style="text;html=1;strokeColor=#E6E6E6;fillColor=none;align=center;verticalAlign=middle;whiteSpace=wrap;rounded=0;fontSize=10;fontStyle=0;fontColor=#8F8F8F;" parent="1" vertex="1">
          <mxGeometry x="245" y="305" width="30" height="30" as="geometry" />
        </mxCell>
        <mxCell id="uG-KMg2iX7xWKbClNyzy-20" value="3" style="text;html=1;strokeColor=#E6E6E6;fillColor=none;align=center;verticalAlign=middle;whiteSpace=wrap;rounded=0;fontSize=10;fontStyle=0;fontColor=#8F8F8F;" parent="1" vertex="1">
          <mxGeometry x="275" y="305" width="30" height="30" as="geometry" />
        </mxCell>
        <mxCell id="uG-KMg2iX7xWKbClNyzy-21" value="4" style="text;html=1;strokeColor=#E6E6E6;fillColor=none;align=center;verticalAlign=middle;whiteSpace=wrap;rounded=0;fontSize=10;fontStyle=0;fontColor=#8F8F8F;" parent="1" vertex="1">
          <mxGeometry x="305" y="305" width="30" height="30" as="geometry" />
        </mxCell>
        <mxCell id="uG-KMg2iX7xWKbClNyzy-22" value="5" style="text;html=1;strokeColor=#E6E6E6;fillColor=none;align=center;verticalAlign=middle;whiteSpace=wrap;rounded=0;fontSize=10;fontStyle=0;fontColor=#8F8F8F;" parent="1" vertex="1">
          <mxGeometry x="335" y="305" width="30" height="30" as="geometry" />
        </mxCell>
        <mxCell id="uG-KMg2iX7xWKbClNyzy-23" value="6" style="text;html=1;strokeColor=#E6E6E6;fillColor=none;align=center;verticalAlign=middle;whiteSpace=wrap;rounded=0;fontSize=10;fontStyle=0;fontColor=#8F8F8F;" parent="1" vertex="1">
          <mxGeometry x="365" y="305" width="30" height="30" as="geometry" />
        </mxCell>
        <mxCell id="uG-KMg2iX7xWKbClNyzy-24" value="7" style="text;html=1;strokeColor=#E6E6E6;fillColor=none;align=center;verticalAlign=middle;whiteSpace=wrap;rounded=0;fontSize=10;fontStyle=0;fontColor=#8F8F8F;" parent="1" vertex="1">
          <mxGeometry x="395" y="305" width="30" height="30" as="geometry" />
        </mxCell>
        <mxCell id="uG-KMg2iX7xWKbClNyzy-25" value="8" style="text;html=1;strokeColor=#E6E6E6;fillColor=none;align=center;verticalAlign=middle;whiteSpace=wrap;rounded=0;fontSize=10;fontStyle=0;fontColor=#8F8F8F;" parent="1" vertex="1">
          <mxGeometry x="425" y="305" width="30" height="30" as="geometry" />
        </mxCell>
        <mxCell id="uG-KMg2iX7xWKbClNyzy-26" value="9" style="text;html=1;strokeColor=#E6E6E6;fillColor=none;align=center;verticalAlign=middle;whiteSpace=wrap;rounded=0;fontSize=10;fontStyle=0;fontColor=#8F8F8F;" parent="1" vertex="1">
          <mxGeometry x="455" y="305" width="30" height="30" as="geometry" />
        </mxCell>
        <mxCell id="uG-KMg2iX7xWKbClNyzy-27" value="10" style="text;html=1;strokeColor=#E6E6E6;fillColor=none;align=center;verticalAlign=middle;whiteSpace=wrap;rounded=0;fontSize=10;fontStyle=0;fontColor=#8F8F8F;" parent="1" vertex="1">
          <mxGeometry x="485" y="305" width="30" height="30" as="geometry" />
        </mxCell>
        <mxCell id="uG-KMg2iX7xWKbClNyzy-28" value="11" style="text;html=1;strokeColor=#E6E6E6;fillColor=none;align=center;verticalAlign=middle;whiteSpace=wrap;rounded=0;fontSize=10;fontStyle=0;fontColor=#8F8F8F;" parent="1" vertex="1">
          <mxGeometry x="515" y="305" width="30" height="30" as="geometry" />
        </mxCell>
        <mxCell id="uG-KMg2iX7xWKbClNyzy-29" value="12" style="text;html=1;strokeColor=#E6E6E6;fillColor=none;align=center;verticalAlign=middle;whiteSpace=wrap;rounded=0;fontSize=10;fontStyle=0;fontColor=#8F8F8F;" parent="1" vertex="1">
          <mxGeometry x="545" y="305" width="30" height="30" as="geometry" />
        </mxCell>
        <mxCell id="uG-KMg2iX7xWKbClNyzy-30" value="13" style="text;html=1;strokeColor=#E6E6E6;fillColor=none;align=center;verticalAlign=middle;whiteSpace=wrap;rounded=0;fontSize=10;fontStyle=0;fontColor=#8F8F8F;" parent="1" vertex="1">
          <mxGeometry x="575" y="305" width="30" height="30" as="geometry" />
        </mxCell>
        <mxCell id="uG-KMg2iX7xWKbClNyzy-31" value="14" style="text;html=1;strokeColor=#E6E6E6;fillColor=none;align=center;verticalAlign=middle;whiteSpace=wrap;rounded=0;fontSize=10;fontStyle=0;fontColor=#8F8F8F;" parent="1" vertex="1">
          <mxGeometry x="605" y="305" width="30" height="30" as="geometry" />
        </mxCell>
        <mxCell id="uG-KMg2iX7xWKbClNyzy-32" value="15" style="text;html=1;strokeColor=#E6E6E6;fillColor=none;align=center;verticalAlign=middle;whiteSpace=wrap;rounded=0;fontSize=10;fontStyle=0;fontColor=#8F8F8F;" parent="1" vertex="1">
          <mxGeometry x="635" y="305" width="30" height="30" as="geometry" />
        </mxCell>
        <mxCell id="uG-KMg2iX7xWKbClNyzy-33" value="&lt;div&gt;&lt;font&gt;x&lt;/font&gt;&lt;/div&gt;" style="text;html=1;strokeColor=#666666;fillColor=#f5f5f5;align=center;verticalAlign=middle;whiteSpace=wrap;rounded=0;fontFamily=Comic Sans MS;fontColor=#333333;" parent="1" vertex="1">
          <mxGeometry x="245" y="155" width="60" height="30" as="geometry" />
        </mxCell>
        <mxCell id="uG-KMg2iX7xWKbClNyzy-34" value="" style="endArrow=classic;html=1;rounded=0;exitX=0.5;exitY=1;exitDx=0;exitDy=0;entryX=0.5;entryY=0;entryDx=0;entryDy=0;" parent="1" source="uG-KMg2iX7xWKbClNyzy-33" target="uG-KMg2iX7xWKbClNyzy-3" edge="1">
          <mxGeometry width="50" height="50" relative="1" as="geometry">
            <mxPoint x="315" y="225" as="sourcePoint" />
            <mxPoint x="365" y="175" as="targetPoint" />
          </mxGeometry>
        </mxCell>
        <mxCell id="uG-KMg2iX7xWKbClNyzy-35" value="h1(x)" style="edgeLabel;html=1;align=center;verticalAlign=middle;resizable=0;points=[];" parent="uG-KMg2iX7xWKbClNyzy-34" vertex="1" connectable="0">
          <mxGeometry x="-0.0992" y="-2" relative="1" as="geometry">
            <mxPoint as="offset" />
          </mxGeometry>
        </mxCell>
        <mxCell id="uG-KMg2iX7xWKbClNyzy-36" value="" style="endArrow=classic;html=1;rounded=0;exitX=0.5;exitY=1;exitDx=0;exitDy=0;entryX=0.5;entryY=0;entryDx=0;entryDy=0;" parent="1" source="uG-KMg2iX7xWKbClNyzy-33" target="uG-KMg2iX7xWKbClNyzy-7" edge="1">
          <mxGeometry width="50" height="50" relative="1" as="geometry">
            <mxPoint x="405" y="155" as="sourcePoint" />
            <mxPoint x="270" y="285" as="targetPoint" />
          </mxGeometry>
        </mxCell>
        <mxCell id="uG-KMg2iX7xWKbClNyzy-37" value="h2(x)" style="edgeLabel;html=1;align=center;verticalAlign=middle;resizable=0;points=[];" parent="uG-KMg2iX7xWKbClNyzy-36" vertex="1" connectable="0">
          <mxGeometry x="-0.0992" y="-2" relative="1" as="geometry">
            <mxPoint as="offset" />
          </mxGeometry>
        </mxCell>
        <mxCell id="uG-KMg2iX7xWKbClNyzy-38" value="&lt;div&gt;&lt;font&gt;y&lt;/font&gt;&lt;/div&gt;" style="text;html=1;strokeColor=#666666;fillColor=#f5f5f5;align=center;verticalAlign=middle;whiteSpace=wrap;rounded=0;fontFamily=Comic Sans MS;fontColor=#333333;" parent="1" vertex="1">
          <mxGeometry x="435" y="145" width="60" height="30" as="geometry" />
        </mxCell>
        <mxCell id="uG-KMg2iX7xWKbClNyzy-39" value="" style="endArrow=classic;html=1;rounded=0;exitX=0.5;exitY=1;exitDx=0;exitDy=0;entryX=0.5;entryY=0;entryDx=0;entryDy=0;jumpStyle=arc;" parent="1" source="uG-KMg2iX7xWKbClNyzy-38" target="uG-KMg2iX7xWKbClNyzy-7" edge="1">
          <mxGeometry width="50" height="50" relative="1" as="geometry">
            <mxPoint x="505" y="215" as="sourcePoint" />
            <mxPoint x="450" y="265" as="targetPoint" />
          </mxGeometry>
        </mxCell>
        <mxCell id="uG-KMg2iX7xWKbClNyzy-40" value="h1(y)" style="edgeLabel;html=1;align=center;verticalAlign=middle;resizable=0;points=[];" parent="uG-KMg2iX7xWKbClNyzy-39" vertex="1" connectable="0">
          <mxGeometry x="-0.0992" y="-2" relative="1" as="geometry">
            <mxPoint x="8" y="-14" as="offset" />
          </mxGeometry>
        </mxCell>
        <mxCell id="uG-KMg2iX7xWKbClNyzy-41" value="" style="endArrow=classic;html=1;rounded=0;exitX=0.5;exitY=1;exitDx=0;exitDy=0;entryX=0.5;entryY=0;entryDx=0;entryDy=0;" parent="1" source="uG-KMg2iX7xWKbClNyzy-38" target="uG-KMg2iX7xWKbClNyzy-11" edge="1">
          <mxGeometry width="50" height="50" relative="1" as="geometry">
            <mxPoint x="595" y="145" as="sourcePoint" />
            <mxPoint x="570" y="265" as="targetPoint" />
          </mxGeometry>
        </mxCell>
        <mxCell id="uG-KMg2iX7xWKbClNyzy-42" value="h2(y)" style="edgeLabel;html=1;align=center;verticalAlign=middle;resizable=0;points=[];" parent="uG-KMg2iX7xWKbClNyzy-41" vertex="1" connectable="0">
          <mxGeometry x="-0.0992" y="-2" relative="1" as="geometry">
            <mxPoint as="offset" />
          </mxGeometry>
        </mxCell>
        <mxCell id="uG-KMg2iX7xWKbClNyzy-43" value="" style="endArrow=classic;html=1;rounded=0;exitX=0.5;exitY=1;exitDx=0;exitDy=0;entryX=0.5;entryY=0;entryDx=0;entryDy=0;" parent="1" source="uG-KMg2iX7xWKbClNyzy-38" target="uG-KMg2iX7xWKbClNyzy-15" edge="1">
          <mxGeometry width="50" height="50" relative="1" as="geometry">
            <mxPoint x="610" y="145" as="sourcePoint" />
            <mxPoint x="750" y="265" as="targetPoint" />
          </mxGeometry>
        </mxCell>
        <mxCell id="uG-KMg2iX7xWKbClNyzy-44" value="h3(y)" style="edgeLabel;html=1;align=center;verticalAlign=middle;resizable=0;points=[];" parent="uG-KMg2iX7xWKbClNyzy-43" vertex="1" connectable="0">
          <mxGeometry x="-0.0992" y="-2" relative="1" as="geometry">
            <mxPoint as="offset" />
          </mxGeometry>
        </mxCell>
        <mxCell id="uG-KMg2iX7xWKbClNyzy-45" value="" style="endArrow=classic;html=1;rounded=0;exitX=0.5;exitY=1;exitDx=0;exitDy=0;entryX=0.5;entryY=0;entryDx=0;entryDy=0;jumpStyle=arc;" parent="1" source="uG-KMg2iX7xWKbClNyzy-33" target="uG-KMg2iX7xWKbClNyzy-13" edge="1">
          <mxGeometry width="50" height="50" relative="1" as="geometry">
            <mxPoint x="420" y="155" as="sourcePoint" />
            <mxPoint x="390" y="285" as="targetPoint" />
          </mxGeometry>
        </mxCell>
        <mxCell id="uG-KMg2iX7xWKbClNyzy-46" value="h3(x)" style="edgeLabel;html=1;align=center;verticalAlign=middle;resizable=0;points=[];" parent="uG-KMg2iX7xWKbClNyzy-45" vertex="1" connectable="0">
          <mxGeometry x="-0.0992" y="-2" relative="1" as="geometry">
            <mxPoint x="-31" y="-12" as="offset" />
          </mxGeometry>
        </mxCell>
        <mxCell id="uG-KMg2iX7xWKbClNyzy-47" value="&lt;div&gt;&lt;font&gt;z&lt;/font&gt;&lt;/div&gt;" style="text;html=1;strokeColor=#666666;fillColor=#f5f5f5;align=center;verticalAlign=middle;whiteSpace=wrap;rounded=0;fontFamily=Comic Sans MS;fontColor=#333333;" parent="1" vertex="1">
          <mxGeometry x="387" y="417" width="60" height="30" as="geometry" />
        </mxCell>
        <mxCell id="uG-KMg2iX7xWKbClNyzy-48" value="&lt;br&gt;m=16,k=3的BloomFilter示意" style="text;html=1;strokeColor=#666666;fillColor=#f5f5f5;align=center;verticalAlign=bottom;whiteSpace=wrap;rounded=0;fontStyle=1;fontColor=#333333;labelPosition=center;verticalLabelPosition=middle;horizontal=1;spacing=5;" parent="1" vertex="1">
          <mxGeometry x="270" y="85" width="280" height="30" as="geometry" />
        </mxCell>
        <mxCell id="uG-KMg2iX7xWKbClNyzy-49" value="" style="endArrow=classic;html=1;rounded=0;exitX=0.5;exitY=0;exitDx=0;exitDy=0;entryX=0.5;entryY=0;entryDx=0;entryDy=0;dashed=1;" parent="1" source="uG-KMg2iX7xWKbClNyzy-47" target="uG-KMg2iX7xWKbClNyzy-31" edge="1">
          <mxGeometry width="50" height="50" relative="1" as="geometry">
            <mxPoint x="289.72" y="375" as="sourcePoint" />
            <mxPoint x="289.72" y="465" as="targetPoint" />
          </mxGeometry>
        </mxCell>
        <mxCell id="uG-KMg2iX7xWKbClNyzy-50" value="h3(z)" style="edgeLabel;html=1;align=center;verticalAlign=middle;resizable=0;points=[];" parent="uG-KMg2iX7xWKbClNyzy-49" vertex="1" connectable="0">
          <mxGeometry x="-0.0992" y="-2" relative="1" as="geometry">
            <mxPoint as="offset" />
          </mxGeometry>
        </mxCell>
        <mxCell id="uG-KMg2iX7xWKbClNyzy-51" value="" style="endArrow=classic;html=1;rounded=0;exitX=0.5;exitY=0;exitDx=0;exitDy=0;entryX=0.5;entryY=0;entryDx=0;entryDy=0;dashed=1;" parent="1" source="uG-KMg2iX7xWKbClNyzy-47" target="uG-KMg2iX7xWKbClNyzy-23" edge="1">
          <mxGeometry width="50" height="50" relative="1" as="geometry">
            <mxPoint x="450" y="415" as="sourcePoint" />
            <mxPoint x="365" y="325" as="targetPoint" />
          </mxGeometry>
        </mxCell>
        <mxCell id="uG-KMg2iX7xWKbClNyzy-52" value="h1(z)" style="edgeLabel;html=1;align=center;verticalAlign=middle;resizable=0;points=[];" parent="uG-KMg2iX7xWKbClNyzy-51" vertex="1" connectable="0">
          <mxGeometry x="-0.0992" y="-2" relative="1" as="geometry">
            <mxPoint as="offset" />
          </mxGeometry>
        </mxCell>
        <mxCell id="uG-KMg2iX7xWKbClNyzy-53" value="" style="endArrow=classic;html=1;rounded=0;exitX=0.5;exitY=0;exitDx=0;exitDy=0;entryX=0.5;entryY=0;entryDx=0;entryDy=0;dashed=1;" parent="1" source="uG-KMg2iX7xWKbClNyzy-47" target="uG-KMg2iX7xWKbClNyzy-27" edge="1">
          <mxGeometry width="50" height="50" relative="1" as="geometry">
            <mxPoint x="355" y="405" as="sourcePoint" />
            <mxPoint x="390" y="315" as="targetPoint" />
          </mxGeometry>
        </mxCell>
        <mxCell id="uG-KMg2iX7xWKbClNyzy-54" value="h2(z)" style="edgeLabel;html=1;align=center;verticalAlign=middle;resizable=0;points=[];" parent="uG-KMg2iX7xWKbClNyzy-53" vertex="1" connectable="0">
          <mxGeometry x="-0.0992" y="-2" relative="1" as="geometry">
            <mxPoint as="offset" />
          </mxGeometry>
        </mxCell>
        <mxCell id="uG-KMg2iX7xWKbClNyzy-55" value="添加z元素后会和y元素冲突, 后续会误判" style="text;html=1;strokeColor=#b85450;fillColor=#f8cecc;align=center;verticalAlign=middle;whiteSpace=wrap;rounded=0;" parent="1" vertex="1">
          <mxGeometry x="447" y="417" width="115" height="30" as="geometry" />
        </mxCell>
        <mxCell id="gG3z0YdXMNFhuaWmRxzf-1" value="索引" style="text;html=1;strokeColor=default;fillColor=none;align=center;verticalAlign=middle;whiteSpace=wrap;rounded=0;" vertex="1" parent="1">
          <mxGeometry x="109" y="308" width="71" height="30" as="geometry" />
        </mxCell>
        <mxCell id="gG3z0YdXMNFhuaWmRxzf-2" value="&lt;font style=&quot;font-size: 12px;&quot;&gt;二进制向量&lt;/font&gt;" style="text;html=1;strokeColor=default;fillColor=none;align=center;verticalAlign=middle;whiteSpace=wrap;rounded=0;fontSize=12;" vertex="1" parent="1">
          <mxGeometry x="108" y="275" width="72" height="30" as="geometry" />
        </mxCell>
      </root>
    </mxGraphModel>
  </diagram>
</mxfile>
